<svg width="24" height="24" viewBox="0 0 24 24" fill="none" xmlns="http://www.w3.org/2000/svg">
<path d="M15.0556 14.1824C15.5156 15.6094 15.7486 16.8584 15.7486 17.9354C15.7486 20.3334 14.8096 22.1824 13.2486 22.1824C12.4486 22.1824 12.1706 21.7324 11.8656 20.6364L11.5956 19.6144C11.4956 19.2564 11.3196 18.6444 11.0696 17.7844C11.0629 17.761 11.0528 17.7388 11.0396 17.7184L8.17362 13.2334C7.49545 12.1722 6.49476 11.3566 5.31862 10.9064L4.06162 10.4254C3.67722 10.2781 3.35701 10.0001 3.15729 9.64018C2.95757 9.28025 2.89112 8.86143 2.96962 8.45735L3.65562 4.91935C3.73729 4.49706 3.93828 4.10703 4.23479 3.79546C4.5313 3.48389 4.9109 3.26383 5.32862 3.16135L13.5786 1.14035C14.7947 0.842429 16.0792 1.03669 17.1528 1.68089C18.2264 2.32509 19.0023 3.36712 19.3116 4.58035L20.8856 10.7524C20.9893 11.1584 20.9987 11.5828 20.9133 11.9931C20.8278 12.4033 20.6497 12.7887 20.3926 13.1196C20.1355 13.4505 19.8061 13.7183 19.4297 13.9025C19.0533 14.0867 18.6397 14.1824 18.2206 14.1824H15.0556Z" fill="black"/>
</svg>
