<svg width="16" height="17" viewBox="0 0 16 17" fill="none" xmlns="http://www.w3.org/2000/svg">
<g clip-path="url(#clip0_44_35504)">
<path d="M8 16.002C12.4183 16.002 16 12.4202 16 8.00195C16 3.58367 12.4183 0.00195312 8 0.00195312C3.58172 0.00195312 0 3.58367 0 8.00195C0 12.4202 3.58172 16.002 8 16.002Z" fill="#0071DC"/>
<path d="M7.82114 3.81066L7.78985 3.8451L7.78637 3.84896L7.45063 4.1837H8.15043C10.3581 4.1837 12.1535 5.97881 12.1535 8.18677C12.1535 10.3945 10.3581 12.1896 8.15043 12.1896C5.94546 12.1896 4.15039 10.3944 4.15039 8.18677C4.15039 7.88024 4.39923 7.6314 4.70576 7.6314C5.01229 7.6314 5.26113 7.88024 5.26113 8.18677C5.26113 9.78148 6.55596 11.0788 8.15043 11.0788C9.74503 11.0788 11.0428 9.78135 11.0428 8.18677C11.0428 6.61917 9.78902 5.33889 8.23198 5.29558L8.14973 5.29445H7.44669L7.78635 5.63513L7.82114 3.81066ZM7.82114 3.81066L7.82437 3.80669L7.82114 3.81066ZM7.82114 3.81066L7.82437 3.80669L7.82114 3.81066ZM7.82437 3.80669C8.00191 3.58873 7.9894 3.26579 7.78635 3.06275L7.71564 3.13346M7.82437 3.80669L7.0378 6.45018L7.82437 3.80669ZM7.0378 6.45018L7.00331 6.41799L7.00049 6.41537L5.72167 5.13341C5.63274 5.04593 5.57179 4.92896 5.55794 4.79649L5.55726 4.78993L5.55564 4.742L5.55549 4.73817C5.55549 4.61501 5.59584 4.49048 5.67905 4.38815L5.6823 4.38415L5.71364 4.34962L5.71708 4.34581L7.00057 3.06281C7.21676 2.84632 7.57018 2.84621 7.78635 3.06275L7.71564 3.13346M7.0378 6.45018L7.04185 6.45356L7.0378 6.45018ZM7.0378 6.45018L7.04185 6.45356L7.0378 6.45018ZM7.71564 3.13346C7.53852 2.95603 7.24846 2.95603 7.07134 3.13346H7.71564ZM7.04185 6.45356C7.14433 6.53909 7.27032 6.58064 7.39349 6.58064C7.5334 6.58064 7.67772 6.52693 7.78392 6.41785M7.04185 6.45356L7.78392 6.41785L7.04185 6.45356ZM7.78392 6.41785C8.00288 6.20131 8.00254 5.85144 7.78635 5.63513L7.78392 6.41785Z" fill="white"/>
<path d="M7.82114 3.81066L7.78985 3.8451L7.78637 3.84896L7.45063 4.1837H8.15043C10.3581 4.1837 12.1535 5.97881 12.1535 8.18677C12.1535 10.3945 10.3581 12.1896 8.15043 12.1896C5.94546 12.1896 4.15039 10.3944 4.15039 8.18677C4.15039 7.88024 4.39923 7.6314 4.70576 7.6314C5.01229 7.6314 5.26113 7.88024 5.26113 8.18677C5.26113 9.78148 6.55596 11.0788 8.15043 11.0788C9.74503 11.0788 11.0428 9.78135 11.0428 8.18677C11.0428 6.61917 9.78902 5.33889 8.23198 5.29558L8.14973 5.29445H7.44669L7.78635 5.63513M7.82114 3.81066L7.78635 5.63513M7.82114 3.81066L7.82437 3.80669M7.78635 5.63513C8.00254 5.85144 8.00288 6.20131 7.78392 6.41785M7.78635 5.63513L7.78392 6.41785M7.82437 3.80669C8.00191 3.58873 7.9894 3.26579 7.78635 3.06275M7.82437 3.80669L7.0378 6.45018M7.78635 3.06275L7.71564 3.13346M7.78635 3.06275C7.57018 2.84621 7.21676 2.84632 7.00057 3.06281M7.71564 3.13346C7.53852 2.95603 7.24846 2.95603 7.07134 3.13346H7.71564ZM7.0378 6.45018L7.00331 6.41799L7.00049 6.41537L5.72167 5.13341C5.63274 5.04593 5.57179 4.92896 5.55794 4.79649L5.55726 4.78993L5.55564 4.742L5.55549 4.73817C5.55549 4.61501 5.59584 4.49048 5.67905 4.38815L5.6823 4.38415L5.71364 4.34962L5.71708 4.34581L7.00057 3.06281M7.0378 6.45018L7.04185 6.45356M7.00057 3.06281C7.00059 3.06279 7.00056 3.06282 7.00057 3.06281ZM7.04185 6.45356C7.14433 6.53909 7.27032 6.58064 7.39349 6.58064C7.5334 6.58064 7.67772 6.52693 7.78392 6.41785M7.04185 6.45356L7.78392 6.41785" stroke="white" stroke-width="0.2" stroke-linejoin="round"/>
</g>
<defs>
<clipPath id="clip0_44_35504">
<rect width="16" height="17" fill="white"/>
</clipPath>
</defs>
</svg>
