<svg width="16" height="16" viewBox="0 0 16 16" fill="none" xmlns="http://www.w3.org/2000/svg">
<path d="M8 0C6.41775 0 4.87103 0.469192 3.55544 1.34824C2.23985 2.22729 1.21447 3.47672 0.608967 4.93853C0.00346627 6.40034 -0.15496 8.00887 0.153721 9.56072C0.462403 11.1126 1.22433 12.538 2.34315 13.6569C3.46197 14.7757 4.88743 15.5376 6.43928 15.8463C7.99113 16.155 9.59966 15.9965 11.0615 15.391C12.5233 14.7855 13.7727 13.7602 14.6518 12.4446C15.5308 11.129 16 9.58225 16 8C16 6.94942 15.7931 5.90914 15.391 4.93853C14.989 3.96793 14.3997 3.08601 13.6569 2.34315C12.914 1.60028 12.0321 1.011 11.0615 0.608964C10.0909 0.206926 9.05058 0 8 0ZM8 12.8C7.84178 12.8 7.68711 12.7531 7.55555 12.6652C7.42399 12.5773 7.32145 12.4523 7.2609 12.3061C7.20035 12.16 7.18451 11.9991 7.21537 11.8439C7.24624 11.6887 7.32243 11.5462 7.43432 11.4343C7.5462 11.3224 7.68875 11.2462 7.84393 11.2154C7.99911 11.1845 8.15997 11.2003 8.30615 11.2609C8.45233 11.3214 8.57727 11.424 8.66518 11.5555C8.75308 11.6871 8.8 11.8418 8.8 12C8.8 12.2122 8.71572 12.4157 8.56569 12.5657C8.41566 12.7157 8.21218 12.8 8 12.8ZM8.8 8.672V9.6C8.8 9.81217 8.71572 10.0157 8.56569 10.1657C8.41566 10.3157 8.21218 10.4 8 10.4C7.78783 10.4 7.58435 10.3157 7.43432 10.1657C7.28429 10.0157 7.2 9.81217 7.2 9.6V8C7.2 7.78783 7.28429 7.58434 7.43432 7.43431C7.58435 7.28428 7.78783 7.2 8 7.2C8.23734 7.2 8.46935 7.12962 8.66669 6.99776C8.86403 6.86591 9.01783 6.67849 9.10866 6.45922C9.19948 6.23995 9.22325 5.99867 9.17694 5.76589C9.13064 5.53311 9.01635 5.31929 8.84853 5.15147C8.68071 4.98365 8.46689 4.86936 8.23411 4.82306C8.00133 4.77675 7.76005 4.80052 7.54078 4.89134C7.32151 4.98217 7.1341 5.13598 7.00224 5.33332C6.87038 5.53065 6.8 5.76266 6.8 6C6.8 6.21217 6.71572 6.41566 6.56569 6.56568C6.41566 6.71571 6.21218 6.8 6 6.8C5.78783 6.8 5.58435 6.71571 5.43432 6.56568C5.28429 6.41566 5.2 6.21217 5.2 6C5.19791 5.48024 5.34053 4.97016 5.6119 4.52686C5.88326 4.08356 6.27266 3.72454 6.7365 3.49C7.20033 3.25546 7.7203 3.15466 8.23818 3.19887C8.75605 3.24309 9.2514 3.43058 9.66877 3.74036C10.0861 4.05013 10.409 4.46997 10.6013 4.95285C10.7936 5.43574 10.8477 5.96262 10.7575 6.4745C10.6673 6.98638 10.4365 7.46306 10.0907 7.85116C9.74502 8.23927 9.2981 8.52349 8.8 8.672Z" fill="#007ACC"/>
</svg>
