<svg width="50" height="50" viewBox="0 0 50 50" fill="none" xmlns="http://www.w3.org/2000/svg">
<g clip-path="url(#clip0_296_11830)">
<path fill-rule="evenodd" clip-rule="evenodd" d="M44.6989 28.7883H37.1231C36.2868 28.7883 35.608 29.4671 35.608 30.3035V36.3641C35.608 37.2019 36.2868 37.8792 37.1231 37.8792H44.6989V45.455C44.6989 46.2929 44.0201 46.9701 43.1838 46.9701H6.82011C5.98375 46.9701 5.30496 46.2929 5.30496 45.455V16.6671H43.1838C44.0201 16.6671 44.6989 17.3444 44.6989 18.1822V28.7883ZM44.6989 33.3338V34.8489H38.6383V33.3338V31.8186H44.6989V33.3338ZM41.6686 4.54588V13.6368H12.1231L41.6686 4.54588ZM44.6989 13.6368V3.03073C44.6989 2.19285 44.3413 1.7292 43.5625 1.42162C42.9625 1.18374 42.3792 1.32618 41.6686 1.51558L2.27466 13.6368V46.9701C2.27466 48.6428 3.63223 50.0004 5.30496 50.0004H44.6989C46.3716 50.0004 47.7292 48.6428 47.7292 46.9701V16.6671C47.7292 14.9944 46.3716 13.6368 44.6989 13.6368Z" fill="#2E2F32"/>
</g>
<defs>
<clipPath id="clip0_296_11830">
<rect width="50" height="50" fill="white"/>
</clipPath>
</defs>
</svg>
