<svg width="51" height="51" viewBox="0 0 51 51" fill="none" xmlns="http://www.w3.org/2000/svg">
<circle cx="25.5" cy="25.5" r="25" fill="white" stroke="#2E2F32"/>
<path d="M35.0002 34.0002L30.6572 29.6572M30.6572 29.6572C31.4001 28.9143 31.9894 28.0324 32.3914 27.0618C32.7935 26.0911 33.0004 25.0508 33.0004 24.0002C33.0004 22.9496 32.7935 21.9093 32.3914 20.9387C31.9894 19.968 31.4001 19.0861 30.6572 18.3432C29.9143 17.6003 29.0324 17.011 28.0618 16.609C27.0911 16.2069 26.0508 16 25.0002 16C23.9496 16 22.9093 16.2069 21.9387 16.609C20.968 17.011 20.0861 17.6003 19.3432 18.3432C17.8429 19.8435 17 21.8784 17 24.0002C17 26.122 17.8429 28.1569 19.3432 29.6572C20.8435 31.1575 22.8784 32.0004 25.0002 32.0004C27.122 32.0004 29.1569 31.1575 30.6572 29.6572ZM25.0002 21.0002V27.0002M22.0002 24.0002H28.0002" stroke="black" stroke-linecap="round" stroke-linejoin="round"/>
</svg>
