<svg xmlns="http://www.w3.org/2000/svg" xmlns:xlink="http://www.w3.org/1999/xlink" width="224" height="224"><defs><path id="c" d="M0 0h165.2l2.3 7v19.8c0 2.5-2 4.4-4.3 4.4H4.4c-2.4 0-4.4-2-4.4-4.4V.1z"/><path id="e" d="M4.6 6.9V0h37.9L47 6.9 45 27c-.2 2.3-2 4-4.3 4H0V6.9h4.6z"/><circle id="a" cx="112" cy="112" r="112"/></defs><g fill="none" fill-rule="evenodd"><g><mask id="b" fill="#fff"><use xlink:href="#a"/></mask><use fill="#E6F1FC" xlink:href="#a"/><g mask="url(#b)"><g transform="translate(27 84)"><circle cx="145.7" cy="56.2" r="14.9" fill="#000"/><circle cx="64.3" cy="56.2" r="14.9" fill="#000"/><g transform="translate(0 27.2)"><mask id="d" fill="#fff"><use xlink:href="#c"/></mask><use fill="#C81920" xlink:href="#c"/><path fill="#FFF" d="M0 7.2h167.5v16H0z" mask="url(#d)"/><circle cx="103.3" cy="29" r="18.4" fill="#C81920" mask="url(#d)"/><circle cx="25.2" cy="29" r="18.4" fill="#C81920" mask="url(#d)"/></g><g transform="translate(122.8 27.5)"><mask id="f" fill="#fff"><use xlink:href="#e"/></mask><use fill="#C7C8CB" xlink:href="#e"/><path fill="#909196" d="M0 23h45.9l-.6 4.2A4.4 4.4 0 0141 31H0v-8z" mask="url(#f)"/><path fill="#686A70" d="M5.7 23H46l-.6 4.2A4.4 4.4 0 0141 31H5.7v-8z" mask="url(#f)"/></g><path fill="#C81920" d="M70.8 0h47.8c1.8 0 3.5 1.1 4.1 2.8l8.1 21.3H65.4l3.2-22.2c.1-1.1 1-1.9 2.2-1.9z"/><path fill="#66AAEA" d="M95.2 2.3h21.6c1.9 0 3.6 1.2 4.2 3l6.4 18.8H102L95.2 2.3z"/><path fill="#99C6F1" d="M73.4 2.3h14.7c2 0 3.6 1.2 4.2 3L98.7 24H71l2.3-21.8z"/><path fill="#9B1419" d="M122.8 27.5h42.4l4.6 7h-42.4zm0-26.5h42.4l-20.5 23h-42.4z"/><path fill="#C81920" d="M122.8 1h42.4l4.6 6.9h-42.4z"/><path fill="#7C7C7C" d="M137.7 36.7h19.5V38h-19.5z"/><path fill="#7C7C7C" d="M137.7 36.7h1.2V47h-1.2zm4.6 0h1.1V47h-1.1zm3.4 0h1.2V47h-1.2zm3.5 0h1.1V47h-1.1zm3.4 0h1.2V47h-1.2zm4.6 0h1.2V47h-1.2z"/><path fill="#7C7C7C" d="M137.7 39h19.5v1.2h-19.5zm0 2.3h19.5v1.2h-19.5zm0 2.3h19.5v1.2h-19.5zm0 2.3h19.5V47h-19.5z"/><path fill="#FFF" d="M128.5 36.7h8v8h-8z"/><path fill="#FB741A" d="M128.5 48.2h8v-3.4h-8z"/><path fill="#FFF" d="M159.5 36.7h8v8h-8z"/><path fill="#FB741A" d="M159.5 48.2h8v-3.4h-8z"/><circle cx="25.2" cy="56.2" r="14.9" fill="#000"/><circle cx="25.2" cy="56.2" r="10.3" fill="#FFF"/><circle cx="25.2" cy="56.2" r="6.9" fill="#6D7278"/><circle cx="25.2" cy="56.2" r="14.9" fill="#000"/><circle cx="103.3" cy="56.2" r="14.9" fill="#000"/><circle cx="25.2" cy="56.2" r="10.3" fill="#FFF"/><circle cx="103.3" cy="56.2" r="10.3" fill="#FFF"/><circle cx="25.2" cy="56.2" r="6.9" fill="#9E9FA3"/><circle cx="103.3" cy="56.2" r="6.9" fill="#9E9FA3"/><path fill="#C81920" d="M65.4 24.1H163l2.3 3.4H65.4z"/><path fill="#E54950" d="M3.5 24.1h62v3.5H0L1.6 25c.5-.6 1.1-1 1.9-1z"/><path fill="#C81920" d="M122.8 24.1h39c.7 0 1.4.4 1.8 1l1.6 2.4h-42.4v-3.4z"/><rect width="8" height="2.3" x="72.3" y="31" fill="#D8D8D8" rx="1.1"/><rect width="6.9" height="11.5" x="87.2" y="16.1" fill="#FFF" rx="1.1"/></g><path fill="#BABBBE" d="M145.2 105.9h14.3v2.2h-14.3z"/><path fill="#FFC220" d="M146.2 104.7h2.6v1.2h-2.6zm9.5 0h2.6v1.2h-2.6z"/></g><path fill="#BABBBE" d="M-6 154.5h230v87H-6z" mask="url(#b)"/></g></g></svg>