<svg xmlns="http://www.w3.org/2000/svg" width="161" height="161" fill="none"><rect width="160" height="160" x=".445" y=".222" fill="#17B7FF" rx="80"/><mask id="a" width="161" height="161" x="0" y="0" maskUnits="userSpaceOnUse" style="mask-type:alpha"><rect width="160" height="160" x=".445" y=".222" fill="#fff" rx="80"/></mask><g mask="url(#a)"><path fill="#CD8B52" fill-rule="evenodd" d="M20.755 164.843C7.953 179.839-7.216 192.639-7.216 192.639l46.607 4.812s18.428-39.466 24.606-46.915c6.178-7.449 10.886-7.814 21.182-12.575 10.297-4.761 31.481-46.518 32.625-48.317 1.144-1.8 2.795-5.018 2.03-6.183-.764-1.165-2.626-.628-5.416 1.761-2.791 2.389-10.626 10.794-10.626 10.794l-2.312-1.942s12.396-20.497 13.447-22.621c1.052-2.125 2.179-4.48.755-6.07-1.425-1.592-3.402.297-5.029 1.297-1.627 1-10.663 10.368-10.663 10.368s-5.55-4.66-2.998-4.884c2.551-.223 12.097-13.746 13.969-16.662 1.872-2.916 3.38-5.443 1.493-7.422-1.887-1.98-4.992 1.723-7.819 3.686-2.828 1.963-12.954 13.572-12.954 13.572l-33.556 37.676s-3.93-18.572-6.651-22.15c-2.721-3.578-8.84-3.086-8.84-3.086s1.63 4.654 2.445 8.364c.906 4.125 1.313 7.267 2.005 13.12 1.11 9.385-5.036 15.816-5.091 20.175-.043 3.384.425 12.539-2.264 18.211-6.149 12.976-6.172 12.2-18.974 27.195Z" clip-rule="evenodd"/><mask id="b" width="129" height="151" x="-8" y="47" maskUnits="userSpaceOnUse" style="mask-type:alpha"><path fill="#fff" fill-rule="evenodd" d="M20.755 164.843C7.953 179.839-7.216 192.639-7.216 192.639l46.607 4.812s18.428-39.466 24.606-46.915c6.178-7.449 10.886-7.814 21.182-12.575 10.297-4.761 31.481-46.518 32.625-48.317 1.144-1.8 2.795-5.018 2.03-6.183-.764-1.165-2.626-.628-5.416 1.761-2.791 2.389-10.626 10.794-10.626 10.794l-2.312-1.942s12.396-20.497 13.447-22.621c1.052-2.125 2.179-4.48.755-6.07-1.425-1.592-3.402.297-5.029 1.297-1.627 1-10.663 10.368-10.663 10.368s-5.55-4.66-2.998-4.884c2.551-.223 12.097-13.746 13.969-16.662 1.872-2.916 3.38-5.443 1.493-7.422-1.887-1.98-4.992 1.723-7.819 3.686-2.828 1.963-12.954 13.572-12.954 13.572l-33.556 37.676s-3.93-18.572-6.651-22.15c-2.721-3.578-8.84-3.086-8.84-3.086s1.63 4.654 2.445 8.364c.906 4.125 1.313 7.267 2.005 13.12 1.11 9.385-5.036 15.816-5.091 20.175-.043 3.384.425 12.539-2.264 18.211-6.149 12.976-6.172 12.2-18.974 27.195Z" clip-rule="evenodd"/></mask><g mask="url(#b)"><path fill="#CB793D" fill-rule="evenodd" d="M20.17 191.679s37.275-40.602 43.431-50.543c6.157-9.942-.586-21.394-.586-21.394L89.606 61.23l18.673 56.697-3.002 19.562-62.983 53.976-22.124.214Z" clip-rule="evenodd"/></g><rect width="56.878" height="110.208" x="51.84" y="17.645" fill="#fff" rx="5.469"/><rect width="51.773" height="105.829" x="54.027" y="19.834" fill="#F3F3F3" rx="3.646"/><mask id="c" width="52" height="107" x="54" y="19" maskUnits="userSpaceOnUse" style="mask-type:alpha"><rect width="51.773" height="105.829" x="54.027" y="19.834" fill="#fff" rx="3.646"/></mask><g mask="url(#c)"><path fill="#031D43" d="M54.027 19.834H105.8v105.829H54.027z"/><rect width="28" height="12" x="57.246" y="34.622" fill="#F9E7A1" rx="2"/><rect width="37.6" height="12" x="65.246" y="50.622" fill="#FFC300" rx="2"/><rect width="24.8" height="12" x="78.047" y="66.622" fill="#FFC300" rx="2"/><path fill="#FFC300" d="M60.445 37.822h21.6v1.6h-21.6z"/><path fill="#F9E7A1" d="M68.445 53.822h31.2v1.6h-31.2zm12.801 16h18.4v1.6h-18.4z"/><path fill="#FFC300" d="M60.445 41.822h16v1.6h-16z"/><path fill="#F9E7A1" d="M68.445 57.822h7.2v1.6h-7.2zm12.801 16h14.4v1.6h-14.4z"/><rect width="13.126" height="2.19" x="60.59" y="23.483" fill="#89D0FE" opacity=".5" rx="1.095"/><path fill="#041E42" fill-rule="evenodd" d="M107.283 177.257s37.91-16.71 35.624-24.532l-.667-2.262c-1.947-6.532-3.452-10.776-5.45-12.713-2.219-2.152-4.764-1.275-7.608-1.473-2.781-.193-2.683-5.92-8.451-3.669l-.403.166c-6.176 2.681-6.064-2.143-9.729-1.287-3.613.844-5.389 5.735-5.991 4.803-5.56-8.605-5.719-47.099-11.504-46.057-5.698 1.025-3.876 16.955-3.306 29.143l.025.56c.358 8.169.355 18.331-.007 30.486-2.876-4.383-5.472-7.442-7.789-9.175-3.474-2.6-9.23-2.17-9.62-.532 3.644 5.029 15.676 27.805 34.876 36.542Z" clip-rule="evenodd"/><rect width="8.021" height=".73" x="75.902" y="121.284" fill="#E8E8E8" opacity=".5" rx=".365"/></g><path fill="#FDE5BC" fill-rule="evenodd" d="M42.131 76.913c-.223-.76.625-1.385 1.286-.947a.85.85 0 0 1 .356.504l1.461 5.903.4 1.298c.032.103.04.21.026.317-.11.78-1.205.86-1.427.104l-2.102-7.178Z" clip-rule="evenodd"/><path fill="#CD8B52" fill-rule="evenodd" d="m113.045 242.74 37.121-3.952s-13.498-33.568-14.566-45.02c-1.068-11.451-2.075-13.859.469-21.604 2.543-7.744 7.501-12.474 5.198-20.334-2.304-7.86-3.926-12.884-6.16-15.047-2.234-2.164-4.793-1.284-7.654-1.484-2.861-.2-2.696-6.213-8.908-3.523s-6.101-2.156-9.788-1.298c-3.634.846-5.418 5.76-6.024 4.823-5.597-8.647-5.774-47.322-11.593-46.278-5.82 1.044-3.833 17.529-3.288 29.841.546 12.312.007 30.629.007 30.629s-4.343-6.608-7.84-9.222c-3.496-2.613-9.285-2.184-9.678-.538 3.67 5.054 5.785 10.781 8.967 16.415 3.183 5.634-.01 6.585 4.12 12.06 2.62 3.474 5.334 3.775 9.997 9.106 3.35 3.83 11.064 18.226 13.572 25.251 5.736 16.072 6.048 40.175 6.048 40.175Z" clip-rule="evenodd"/><mask id="d" width="81" height="154" x="70" y="89" maskUnits="userSpaceOnUse" style="mask-type:alpha"><path fill="#fff" fill-rule="evenodd" d="m113.045 242.74 37.121-3.952s-13.498-33.568-14.566-45.02c-1.068-11.451-2.075-13.859.469-21.604 2.543-7.744 7.501-12.474 5.198-20.334-2.304-7.86-3.926-12.884-6.16-15.047-2.234-2.164-4.793-1.284-7.654-1.484-2.861-.2-2.696-6.213-8.908-3.523s-6.101-2.156-9.788-1.298c-3.634.846-5.418 5.76-6.024 4.823-5.597-8.647-5.774-47.322-11.593-46.278-5.82 1.044-3.833 17.529-3.288 29.841.546 12.312.007 30.629.007 30.629s-4.343-6.608-7.84-9.222c-3.496-2.613-9.285-2.184-9.678-.538 3.67 5.054 5.785 10.781 8.967 16.415 3.183 5.634-.01 6.585 4.12 12.06 2.62 3.474 5.334 3.775 9.997 9.106 3.35 3.83 11.064 18.226 13.572 25.251 5.736 16.072 6.048 40.175 6.048 40.175Z" clip-rule="evenodd"/></mask><g mask="url(#d)"><path fill="#CB793D" fill-rule="evenodd" d="m63.856 169.852-4.46-32.391 11.263-6.354 12.765 10.711 4.437 7.674s-.123 9.451 2.754 19.105c2.878 9.655 9.343 20.682 9.343 20.682l-36.102-19.427Z" clip-rule="evenodd"/></g><path fill="#FDE5BC" fill-rule="evenodd" d="M69.302 138.801a1.007 1.007 0 1 1 1.735-1.022l2.816 5.072.683 1.053a.876.876 0 0 1 .138.421c.052.898-1.128 1.274-1.604.511l-3.768-6.035ZM88.833 94.97c.414.348.908.972 2.003.979 1.096.006 1.867-.542 2.213-.954.346-.412.36-1.438.307-3.127-.053-1.688-.094-3.018-.509-3.366-.414-.347-.906-.972-2.003-.978-1.097-.007-1.867.54-2.213.953-.346.413-.368 1.149-.313 2.933.056 1.784.1 3.212.515 3.56Z" clip-rule="evenodd"/></g></svg>
