<svg width="160" height="48" viewBox="0 0 160 48" fill="none" xmlns="http://www.w3.org/2000/svg">
<g clip-path="url(#clip0_273_32098)">
<path d="M10.274 47.9975C9.8606 47.9975 9.45717 47.9926 9.047 47.9841C8.1973 47.9739 7.34959 47.9055 6.51081 47.7794C5.7287 47.6549 4.97104 47.4232 4.26282 47.0919C3.56111 46.7634 2.92108 46.3327 2.36727 45.8163C1.80544 45.3059 1.3377 44.7139 0.982567 44.0639C0.623524 43.4096 0.375044 42.7083 0.245784 41.9844C0.106195 41.2065 0.0306713 40.42 0.0198647 39.6315C0.0112621 39.3669 0 38.4858 0 38.4858V9.49829C0 9.49829 0.0119948 8.63068 0.0199325 8.37579C0.0302798 7.5886 0.105364 6.80329 0.244536 6.02665C0.374034 5.30075 0.622706 4.59741 0.981943 3.94098C1.33577 3.29137 1.80092 2.69898 2.35936 2.18678C2.91718 1.66972 3.55925 1.23678 4.26216 0.903746C4.96875 0.573578 5.72497 0.34349 6.50551 0.22119C7.34704 0.0939072 8.19769 0.0250919 9.05034 0.0153216L10.2747 0H149.719L150.958 0.0159365C151.803 0.0252213 152.645 0.0934226 153.479 0.21996C154.268 0.343794 155.032 0.575488 155.746 0.907423C157.155 1.57857 158.3 2.64038 159.023 3.94404C159.377 4.59594 159.622 5.29354 159.75 6.01317C159.89 6.79619 159.969 7.58767 159.985 8.38131C159.989 8.73668 159.989 9.1184 159.989 9.49829C160 9.96885 160 10.4168 160 10.8683V37.1304C160 37.5863 160 38.0311 159.989 38.4796C159.989 38.8877 159.989 39.2615 159.984 39.6462C159.968 40.4257 159.891 41.2031 159.752 41.9721C159.625 42.7012 159.378 43.408 159.019 44.0676C158.662 44.7106 158.197 45.2975 157.641 45.8065C157.087 46.3257 156.446 46.7589 155.743 47.0895C155.03 47.4233 154.267 47.6559 153.479 47.7794C152.641 47.9061 151.793 47.9746 150.943 47.9841C150.546 47.9926 150.129 47.9975 149.725 47.9975L148.255 48L10.274 47.9975Z" fill="black"/>
<path d="M29.9854 24.3757C29.9989 23.3284 30.2771 22.3014 30.7941 21.3905C31.3111 20.4795 32.0502 19.7142 32.9425 19.1656C32.3756 18.356 31.6278 17.6898 30.7584 17.2198C29.8891 16.7498 28.9221 16.4889 27.9342 16.458C25.8271 16.2369 23.7843 17.7189 22.7105 17.7189C21.6159 17.7189 19.9627 16.48 18.1824 16.5166C17.0309 16.5538 15.9086 16.8887 14.925 17.4886C13.9413 18.0885 13.1299 18.9329 12.5696 19.9397C10.1428 24.1414 11.953 30.3165 14.2777 33.7128C15.4408 35.3759 16.8002 37.2337 18.5788 37.1678C20.3194 37.0956 20.9694 36.0579 23.0704 36.0579C25.1519 36.0579 25.7618 37.1678 27.5765 37.1259C29.4442 37.0956 30.6209 35.4554 31.7432 33.7766C32.5789 32.5915 33.222 31.2818 33.6486 29.896C32.5635 29.437 31.6375 28.6689 30.9861 27.6872C30.3347 26.7055 29.9867 25.5539 29.9854 24.3757Z" fill="white"/>
<path d="M26.5577 14.2259C27.576 13.0034 28.0777 11.4321 27.9562 9.8457C26.4004 10.0091 24.9633 10.7527 23.9312 11.9283C23.4266 12.5026 23.0401 13.1707 22.7939 13.8944C22.5476 14.6182 22.4464 15.3834 22.496 16.1463C23.2742 16.1543 24.0441 15.9856 24.7476 15.653C25.4511 15.3203 26.07 14.8324 26.5577 14.2259Z" fill="white"/>
<path d="M51.9869 32.9586H46.0473L44.6209 37.1704H42.1051L47.731 21.5879H50.3449L55.9708 37.1704H53.4121L51.9869 32.9586ZM46.6624 31.0151H51.3706L49.0496 24.1797H48.9847L46.6624 31.0151Z" fill="white"/>
<path d="M68.1209 31.4896C68.1209 35.0201 66.2313 37.2883 63.3797 37.2883C62.6574 37.3261 61.939 37.1597 61.3068 36.8082C60.6746 36.4566 60.1542 35.9342 59.8052 35.3006H59.7512V40.9278H57.4192V25.8085H59.6765V27.6981H59.7194C60.0845 27.0676 60.6137 26.5479 61.2507 26.1942C61.8877 25.8405 62.6086 25.6662 63.3368 25.6896C66.2202 25.6897 68.1209 27.9689 68.1209 31.4896ZM65.724 31.4896C65.724 29.1895 64.5353 27.6773 62.7217 27.6773C60.9399 27.6773 59.7414 29.2213 59.7414 31.4896C59.7414 33.7787 60.9399 35.3117 62.7217 35.3117C64.5353 35.3117 65.724 33.8106 65.724 31.4896Z" fill="white"/>
<path d="M80.625 31.4896C80.625 35.02 78.7354 37.2883 75.8839 37.2883C75.1615 37.3261 74.4431 37.1597 73.8109 36.8082C73.1788 36.4566 72.6583 35.9342 72.3093 35.3006H72.2553V40.9278H69.9233V25.8085H72.1806V27.6981H72.2235C72.5886 27.0676 73.1178 26.5479 73.7548 26.1942C74.3918 25.8405 75.1127 25.6662 75.8409 25.6896C78.7244 25.6896 80.625 27.9689 80.625 31.4896ZM78.2281 31.4896C78.2281 29.1895 77.0394 27.6773 75.2258 27.6773C73.444 27.6773 72.2456 29.2213 72.2456 31.4896C72.2456 33.7787 73.444 35.3117 75.2258 35.3117C77.0394 35.3117 78.2281 33.8105 78.2281 31.4896Z" fill="white"/>
<path d="M88.8894 32.8288C89.0622 34.374 90.5634 35.3886 92.6147 35.3886C94.5803 35.3886 95.9944 34.374 95.9944 32.9807C95.9944 31.7712 95.1415 31.047 93.122 30.5507L91.1025 30.0642C88.2412 29.373 86.9128 28.0349 86.9128 25.8634C86.9128 23.1748 89.2558 21.3281 92.5828 21.3281C95.8755 21.3281 98.1328 23.1748 98.2088 25.8634H95.8547C95.7138 24.3083 94.4283 23.3697 92.5497 23.3697C90.6712 23.3697 89.3857 24.3194 89.3857 25.7016C89.3857 26.8033 90.2067 27.4516 92.2152 27.9478L93.932 28.3694C97.1291 29.1254 98.4575 30.4097 98.4575 32.689C98.4575 35.6043 96.1353 37.4301 92.4419 37.4301C88.9862 37.4301 86.653 35.6472 86.5022 32.8287L88.8894 32.8288Z" fill="white"/>
<path d="M103.49 23.1191V25.8077H105.651V27.6544H103.49V33.9176C103.49 34.8906 103.923 35.344 104.873 35.344C105.129 35.3395 105.385 35.3215 105.64 35.29V37.1257C105.213 37.2055 104.779 37.2416 104.344 37.2335C102.044 37.2335 101.147 36.3696 101.147 34.1663V27.6544H99.4955V25.8077H101.147V23.1191H103.49Z" fill="white"/>
<path d="M106.902 31.4907C106.902 27.9161 109.007 25.6699 112.29 25.6699C115.584 25.6699 117.68 27.916 117.68 31.4907C117.68 35.075 115.595 37.3114 112.29 37.3114C108.986 37.3114 106.902 35.075 106.902 31.4907ZM115.304 31.4907C115.304 29.0386 114.18 27.5914 112.29 27.5914C110.401 27.5914 109.278 29.0496 109.278 31.4907C109.278 33.9525 110.401 35.3887 112.29 35.3887C114.18 35.3887 115.304 33.9525 115.304 31.4907Z" fill="white"/>
<path d="M119.602 25.8083H121.826V27.742H121.88C122.031 27.1381 122.385 26.6044 122.882 26.2306C123.38 25.8568 123.991 25.6657 124.613 25.6895C124.882 25.6885 125.15 25.7177 125.412 25.7765V27.9577C125.073 27.8541 124.719 27.8065 124.364 27.8168C124.025 27.8031 123.688 27.8628 123.374 27.9919C123.061 28.121 122.779 28.3164 122.548 28.5648C122.317 28.8131 122.143 29.1084 122.037 29.4305C121.931 29.7526 121.896 30.0938 121.934 30.4306V37.1693H119.602V25.8083Z" fill="white"/>
<path d="M136.164 33.8337C135.85 35.8961 133.842 37.3114 131.272 37.3114C127.967 37.3114 125.916 35.0971 125.916 31.5446C125.916 27.981 127.978 25.6699 131.174 25.6699C134.317 25.6699 136.294 27.8291 136.294 31.2738V32.0727H128.27V32.2137C128.233 32.6318 128.285 33.053 128.423 33.4493C128.562 33.8456 128.783 34.208 129.072 34.5124C129.361 34.8167 129.711 35.0561 130.1 35.2146C130.489 35.3731 130.906 35.4471 131.326 35.4316C131.877 35.4833 132.43 35.3556 132.903 35.0677C133.375 34.7798 133.743 34.347 133.95 33.8337H136.164ZM128.281 30.4429H133.961C133.982 30.067 133.925 29.6908 133.793 29.3379C133.662 28.985 133.459 28.6631 133.197 28.3924C132.936 28.1216 132.621 27.9079 132.273 27.7645C131.924 27.6212 131.55 27.5514 131.174 27.5595C130.794 27.5572 130.418 27.6302 130.066 27.7742C129.715 27.9182 129.396 28.1303 129.127 28.3984C128.858 28.6665 128.644 28.9851 128.499 29.3361C128.354 29.687 128.28 30.0632 128.281 30.4429Z" fill="white"/>
<path d="M46.3702 9.8581C46.8591 9.82302 47.3496 9.89688 47.8065 10.0743C48.2634 10.2518 48.6752 10.5285 49.0122 10.8844C49.3493 11.2403 49.6032 11.6665 49.7556 12.1324C49.9079 12.5983 49.9548 13.0922 49.8932 13.5785C49.8932 15.9705 48.6005 17.3455 46.3702 17.3455H43.6656V9.8581H46.3702ZM44.8286 16.2866H46.2402C46.5895 16.3075 46.9392 16.2502 47.2636 16.1189C47.588 15.9876 47.8792 15.7857 48.1157 15.5277C48.3521 15.2698 48.5283 14.9623 48.631 14.6278C48.7337 14.2932 48.7604 13.9399 48.7094 13.5937C48.7567 13.2488 48.7273 12.8978 48.623 12.5657C48.5187 12.2336 48.3422 11.9286 48.1062 11.6727C47.8702 11.4168 47.5805 11.2163 47.2579 11.0855C46.9353 10.9547 46.5878 10.8969 46.2402 10.9162H44.8286V16.2866Z" fill="white"/>
<path d="M51.2069 14.5177C51.1714 14.1463 51.2139 13.7717 51.3317 13.4177C51.4494 13.0638 51.6398 12.7383 51.8907 12.4623C52.1416 12.1863 52.4474 11.9657 52.7886 11.8148C53.1297 11.6639 53.4986 11.5859 53.8716 11.5859C54.2447 11.5859 54.6136 11.6639 54.9547 11.8148C55.2958 11.9657 55.6016 12.1863 55.8525 12.4623C56.1034 12.7383 56.2939 13.0638 56.4116 13.4177C56.5294 13.7717 56.5718 14.1463 56.5363 14.5177C56.5725 14.8894 56.5305 15.2645 56.4131 15.6191C56.2957 15.9736 56.1053 16.2996 55.8544 16.5762C55.6034 16.8528 55.2974 17.0738 54.9559 17.2251C54.6144 17.3763 54.2451 17.4544 53.8716 17.4544C53.4982 17.4544 53.1288 17.3763 52.7874 17.2251C52.4459 17.0738 52.1398 16.8528 51.8889 16.5762C51.6379 16.2996 51.4476 15.9736 51.3302 15.6191C51.2127 15.2645 51.1707 14.8894 51.2069 14.5177ZM55.3893 14.5177C55.3893 13.2929 54.8391 12.5766 53.8735 12.5766C52.9042 12.5766 52.3589 13.2929 52.3589 14.5177C52.3589 15.7523 52.9042 16.463 53.8735 16.463C54.8391 16.463 55.3893 15.7474 55.3893 14.5177Z" fill="white"/>
<path d="M63.6205 17.3458H62.4637L61.2959 13.1842H61.2077L60.0447 17.3458H58.8989L57.3414 11.6953H58.4725L59.4847 16.0069H59.568L60.7297 11.6953H61.7995L62.9612 16.0069H63.0495L64.0568 11.6953H65.1719L63.6205 17.3458Z" fill="white"/>
<path d="M66.4819 11.6947H67.5553V12.5923H67.6387C67.78 12.2699 68.0185 11.9997 68.3207 11.8192C68.623 11.6388 68.974 11.5571 69.3249 11.5856C69.5998 11.565 69.8759 11.6064 70.1326 11.7069C70.3893 11.8074 70.6202 11.9644 70.808 12.1663C70.9958 12.3681 71.1358 12.6096 71.2177 12.8729C71.2995 13.1362 71.321 13.4145 71.2806 13.6872V17.3451H70.1655V13.9673C70.1655 13.0592 69.7709 12.6077 68.9462 12.6077C68.7595 12.599 68.5732 12.6307 68.4 12.7008C68.2267 12.7708 68.0707 12.8775 67.9425 13.0135C67.8144 13.1495 67.7172 13.3117 67.6575 13.4887C67.5979 13.6658 67.5772 13.8537 67.597 14.0396V17.3452H66.4819V11.6947Z" fill="white"/>
<path d="M73.0575 9.48828H74.1727V17.3445H73.0575V9.48828Z" fill="white"/>
<path d="M75.7228 14.5178C75.6873 14.1464 75.7298 13.7717 75.8476 13.4178C75.9654 13.0638 76.1558 12.7384 76.4068 12.4623C76.6577 12.1863 76.9635 11.9657 77.3047 11.8148C77.6458 11.6639 78.0148 11.5859 78.3878 11.5859C78.7609 11.5859 79.1298 11.6639 79.4709 11.8148C79.8121 11.9657 80.1178 12.1863 80.3688 12.4623C80.6197 12.7384 80.8102 13.0638 80.928 13.4178C81.0458 13.7717 81.0883 14.1464 81.0528 14.5178C81.089 14.8895 81.0468 15.2647 80.9294 15.6192C80.8119 15.9737 80.6215 16.2997 80.3706 16.5763C80.1196 16.8529 79.8136 17.0739 79.4721 17.2251C79.1306 17.3764 78.7613 17.4545 78.3878 17.4545C78.0143 17.4545 77.6449 17.3764 77.3034 17.2251C76.9619 17.0739 76.6559 16.8529 76.405 16.5763C76.154 16.2997 75.9636 15.9737 75.8462 15.6192C75.7287 15.2647 75.6867 14.8895 75.7228 14.5178ZM79.9051 14.5178C79.9051 13.293 79.3549 12.5767 78.3892 12.5767C77.4199 12.5767 76.8748 13.293 76.8748 14.5178C76.8748 15.7524 77.42 16.4631 78.3892 16.4631C79.3549 16.4631 79.9051 15.7475 79.9051 14.5178Z" fill="white"/>
<path d="M82.2268 15.7474C82.2268 14.7303 82.9841 14.144 84.3284 14.0606L85.8589 13.9724V13.4847C85.8589 12.8879 85.4644 12.5509 84.7021 12.5509C84.0796 12.5509 83.6483 12.7795 83.5245 13.1789H82.4449C82.5589 12.2084 83.4718 11.5859 84.7536 11.5859C86.1702 11.5859 86.9692 12.2911 86.9692 13.4847V17.3454H85.8957V16.5513H85.8075C85.6284 16.8362 85.3769 17.0684 85.0787 17.2242C84.7806 17.3801 84.4464 17.454 84.1103 17.4385C83.8731 17.4632 83.6333 17.4379 83.4065 17.3642C83.1797 17.2905 82.9708 17.1702 82.7933 17.0108C82.6159 16.8515 82.4738 16.6568 82.3762 16.4392C82.2786 16.2216 82.2277 15.9859 82.2268 15.7474ZM85.8589 15.2646V14.7922L84.4791 14.8804C83.701 14.9325 83.348 15.1972 83.348 15.6953C83.348 16.2039 83.7892 16.4998 84.3958 16.4998C84.5736 16.5178 84.7531 16.4999 84.9238 16.4471C85.0944 16.3942 85.2527 16.3076 85.3892 16.1924C85.5258 16.0771 85.6377 15.9356 85.7184 15.7762C85.7991 15.6168 85.8469 15.4429 85.8589 15.2646Z" fill="white"/>
<path d="M88.4348 14.5169C88.4348 12.7314 89.3526 11.6004 90.7802 11.6004C91.1334 11.5841 91.4838 11.6687 91.7907 11.8442C92.0975 12.0198 92.348 12.279 92.513 12.5917H92.5963V9.48828H93.7115V17.3445H92.6429V16.4518H92.5547C92.377 16.7624 92.1177 17.0184 91.8049 17.1922C91.4922 17.3659 91.1378 17.4508 90.7802 17.4376C89.3428 17.4377 88.4348 16.3066 88.4348 14.5169ZM89.5867 14.5169C89.5867 15.7153 90.1516 16.4365 91.0964 16.4365C92.0363 16.4365 92.6172 15.7049 92.6172 14.5218C92.6172 13.3441 92.0302 12.6021 91.0964 12.6021C90.1577 12.6021 89.5867 13.3282 89.5867 14.5169Z" fill="white"/>
<path d="M98.3252 14.5177C98.2897 14.1463 98.3321 13.7717 98.4499 13.4177C98.5677 13.0638 98.7581 12.7383 99.009 12.4623C99.2599 12.1863 99.5657 11.9657 99.9068 11.8148C100.248 11.6639 100.617 11.5859 100.99 11.5859C101.363 11.5859 101.732 11.6639 102.073 11.8148C102.414 11.9657 102.72 12.1863 102.971 12.4623C103.222 12.7383 103.412 13.0638 103.53 13.4177C103.648 13.7717 103.69 14.1463 103.655 14.5177C103.691 14.8894 103.649 15.2645 103.531 15.6191C103.414 15.9736 103.224 16.2996 102.973 16.5762C102.722 16.8528 102.416 17.0738 102.074 17.2251C101.733 17.3763 101.363 17.4544 100.99 17.4544C100.616 17.4544 100.247 17.3763 99.9056 17.2251C99.5641 17.0738 99.2581 16.8528 99.0071 16.5762C98.7562 16.2996 98.5659 15.9736 98.4484 15.6191C98.331 15.2645 98.289 14.8894 98.3252 14.5177ZM102.508 14.5177C102.508 13.2929 101.957 12.5766 100.992 12.5766C100.022 12.5766 99.4771 13.2929 99.4771 14.5177C99.4771 15.7523 100.022 16.463 100.992 16.463C101.957 16.463 102.508 15.7474 102.508 14.5177Z" fill="white"/>
<path d="M105.151 11.6947H106.224V12.5923H106.308C106.449 12.2699 106.687 11.9997 106.99 11.8192C107.292 11.6388 107.643 11.5571 107.994 11.5856C108.269 11.565 108.545 11.6064 108.802 11.7069C109.058 11.8074 109.289 11.9644 109.477 12.1663C109.665 12.3681 109.805 12.6096 109.887 12.8729C109.968 13.1362 109.99 13.4145 109.95 13.6872V17.3451H108.834V13.9673C108.834 13.0592 108.44 12.6077 107.615 12.6077C107.428 12.599 107.242 12.6307 107.069 12.7008C106.896 12.7708 106.74 12.8775 106.611 13.0135C106.483 13.1495 106.386 13.3117 106.326 13.4887C106.267 13.6658 106.246 13.8537 106.266 14.0396V17.3452H105.151V11.6947Z" fill="white"/>
<path d="M116.251 10.2891V11.7216H117.475V12.6609H116.251V15.5664C116.251 16.1583 116.495 16.4174 117.05 16.4174C117.192 16.417 117.334 16.4084 117.475 16.3917V17.3206C117.275 17.3564 117.072 17.3755 116.868 17.3776C115.628 17.3776 115.134 16.9413 115.134 15.8519V12.6609H114.237V11.7216H115.134V10.2891H116.251Z" fill="white"/>
<path d="M118.998 9.48828H120.103V12.6021H120.192C120.34 12.2767 120.585 12.0049 120.893 11.8238C121.202 11.6427 121.558 11.561 121.915 11.5899C122.188 11.575 122.462 11.6207 122.715 11.7237C122.969 11.8266 123.197 11.9843 123.383 12.1855C123.569 12.3867 123.708 12.6264 123.791 12.8876C123.873 13.1488 123.897 13.425 123.861 13.6964V17.3445H122.744V13.9715C122.744 13.069 122.324 12.6119 121.536 12.6119C121.344 12.5962 121.152 12.6225 120.971 12.6891C120.791 12.7557 120.627 12.8609 120.492 12.9973C120.356 13.1338 120.252 13.2982 120.187 13.4791C120.121 13.6599 120.096 13.8529 120.113 14.0444V17.3445H118.998V9.48828Z" fill="white"/>
<path d="M130.363 15.8198C130.211 16.3362 129.883 16.7829 129.435 17.0818C128.988 17.3806 128.449 17.5126 127.914 17.4545C127.542 17.4644 127.172 17.3931 126.83 17.2456C126.488 17.0981 126.182 16.878 125.934 16.6005C125.686 16.323 125.501 15.9948 125.392 15.6386C125.283 15.2825 125.253 14.9069 125.304 14.538C125.255 14.168 125.285 13.7916 125.394 13.4344C125.502 13.0772 125.686 12.7475 125.933 12.4676C126.18 12.1876 126.485 11.9641 126.825 11.812C127.166 11.6599 127.536 11.5828 127.909 11.586C129.482 11.586 130.43 12.6601 130.43 14.4345V14.8236H126.44V14.8861C126.423 15.0934 126.449 15.3021 126.517 15.4988C126.585 15.6955 126.693 15.8759 126.835 16.0283C126.976 16.1807 127.148 16.3018 127.339 16.3839C127.531 16.4659 127.737 16.5071 127.945 16.5048C128.212 16.5368 128.482 16.4888 128.721 16.3668C128.961 16.2448 129.158 16.0544 129.289 15.8198H130.363ZM126.44 13.9988H129.294C129.308 13.8092 129.282 13.6187 129.218 13.4396C129.155 13.2605 129.054 13.0968 128.923 12.959C128.792 12.8211 128.633 12.7122 128.458 12.6392C128.282 12.5662 128.093 12.5307 127.903 12.5351C127.71 12.5327 127.519 12.5689 127.34 12.6416C127.162 12.7143 126.999 12.822 126.863 12.9585C126.727 13.0949 126.619 13.2572 126.546 13.4359C126.474 13.6146 126.438 13.806 126.44 13.9988Z" fill="white"/>
</g>
<defs>
<clipPath id="clip0_273_32098">
<rect width="160" height="48" fill="white"/>
</clipPath>
</defs>
</svg>
