<svg width="19" height="19" viewBox="0 0 19 19" fill="none" xmlns="http://www.w3.org/2000/svg">
<g clip-path="url(#clip0_652_6578)">
<path fill-rule="evenodd" clip-rule="evenodd" d="M13.52 19V11.32H15.573L15.759 8.7H13.466C13.466 8.7 13.473 7.534 13.466 7.196C13.466 6.368 14.313 6.415 14.363 6.415H15.75V3.785H15.748H13.357C11.937 3.785 10.359 4.392 10.359 6.49C10.366 7.22 10.359 7.92 10.359 8.708H8.717V11.371H10.41V19H4.433C3.2573 19 2.12974 18.533 1.2984 17.7016C0.467047 16.8703 0 15.7427 0 14.567L0 4.433C0 3.2573 0.467047 2.12974 1.2984 1.2984C2.12974 0.467047 3.2573 0 4.433 0L14.567 0C15.7427 0 16.8703 0.467047 17.7016 1.2984C18.533 2.12974 19 3.2573 19 4.433V14.567C19 15.7427 18.533 16.8703 17.7016 17.7016C16.8703 18.533 15.7427 19 14.567 19H13.52Z" fill="#D9D9D9"/>
</g>
<defs>
<clipPath id="clip0_652_6578">
<rect width="19" height="19" fill="white"/>
</clipPath>
</defs>
</svg>
