<svg width="160" height="48" viewBox="0 0 160 48" fill="none" xmlns="http://www.w3.org/2000/svg">
<g clip-path="url(#clip0_273_32123)">
<path fill-rule="evenodd" clip-rule="evenodd" d="M154.072 48H5.92811C2.66088 48 0 45.2948 0 42V6C0 2.69327 2.66088 0 5.92811 0H154.072C157.336 0 160 2.69327 160 6V42C160 45.2948 157.336 48 154.072 48Z" fill="black"/>
<path d="M85.6937 15.8788C84.6074 15.8788 83.6917 15.4987 82.9674 14.7506C82.2492 14.0234 81.8483 13.0209 81.8663 11.9975C81.8663 10.9052 82.2372 9.98049 82.9674 9.24732C83.6886 8.49919 84.6043 8.11914 85.6906 8.11914C86.7649 8.11914 87.6807 8.49919 88.4169 9.24732C89.1469 10.0044 89.518 10.9291 89.518 11.9975C89.506 13.0927 89.1351 14.0174 88.4169 14.7476C87.6957 15.5017 86.78 15.8788 85.6937 15.8788ZM53.3717 15.8788C52.3093 15.8788 51.3875 15.5047 50.6334 14.7655C49.8853 14.0294 49.5052 13.0987 49.5052 12.0004C49.5052 10.9022 49.8853 9.97151 50.6334 9.23535C51.3726 8.4962 52.2944 8.12214 53.3717 8.12214C53.8983 8.12214 54.41 8.22687 54.9007 8.43934C55.3825 8.64583 55.7745 8.92712 56.0648 9.27126L56.1367 9.35805L55.3257 10.1541L55.242 10.0553C54.7841 9.51066 54.1706 9.24433 53.3596 9.24433C52.6354 9.24433 52.004 9.50169 51.4833 10.0104C50.9596 10.5221 50.6933 11.1925 50.6933 12.0034C50.6933 12.8144 50.9596 13.4847 51.4833 13.9965C52.004 14.5052 52.6354 14.7625 53.3596 14.7625C54.1317 14.7625 54.781 14.5052 55.2868 13.9965C55.5861 13.6972 55.7715 13.2783 55.8374 12.7486H53.2369V11.6294H56.9537L56.9685 11.7311C56.9955 11.9197 57.0224 12.1142 57.0224 12.2937C57.0224 13.3261 56.7112 14.161 56.0947 14.7775C55.3945 15.5077 54.4789 15.8788 53.3717 15.8788ZM96.347 15.7201H95.2008L91.6906 10.1032L91.7205 11.1147V15.7172H90.5745V8.28074H91.8822L91.918 8.3376L95.2187 13.6284L95.1888 12.6199V8.28074H96.347V15.7201ZM77.0812 15.7201H75.9201V9.39994H73.9061V8.28074H79.0922V9.39994H77.0783V15.7201H77.0812ZM72.9606 15.7201H71.8024V8.28074H72.9606V15.7201ZM66.4518 15.7201H65.2938V9.39994H63.2798V8.28074H68.4657V9.39994H66.4518V15.7201ZM62.5466 15.7082H58.1058V8.28074H62.5466V9.39994H59.2668V11.4408H62.2264V12.5481H59.2668V14.589H62.5466V15.7082ZM83.8173 13.9815C84.335 14.4992 84.9635 14.7596 85.6937 14.7596C86.4448 14.7596 87.0583 14.5052 87.57 13.9815C88.0787 13.4728 88.336 12.8054 88.336 12.0004C88.336 11.1955 88.0786 10.5251 87.5729 10.0194C87.0552 9.50169 86.4239 9.24134 85.6967 9.24134C84.9456 9.24134 84.3321 9.4957 83.8234 10.0194C83.3146 10.5281 83.0572 11.1955 83.0572 12.0004C83.0572 12.8054 83.3116 13.4758 83.8173 13.9815Z" fill="white"/>
<path fill-rule="evenodd" clip-rule="evenodd" d="M81.7585 26.1073C78.9306 26.1073 76.6383 28.2529 76.6383 31.2125C76.6383 34.1452 78.9456 36.3178 81.7585 36.3178C84.5865 36.3178 86.8787 34.1572 86.8787 31.2125C86.8787 28.2529 84.5865 26.1073 81.7585 26.1073ZM81.7585 34.2948C80.2114 34.2948 78.8797 33.014 78.8797 31.2006C78.8797 29.3602 80.2144 28.1063 81.7585 28.1063C83.3057 28.1063 84.6373 29.3602 84.6373 31.2006C84.6403 33.026 83.3057 34.2948 81.7585 34.2948ZM70.5874 26.1073C67.7595 26.1073 65.4672 28.2529 65.4672 31.2125C65.4672 34.1452 67.7745 36.3178 70.5874 36.3178C73.4154 36.3178 75.7076 34.1572 75.7076 31.2125C75.7076 28.2529 73.4124 26.1073 70.5874 26.1073ZM70.5874 34.2948C69.0403 34.2948 67.7086 33.014 67.7086 31.2006C67.7086 29.3602 69.0433 28.1063 70.5874 28.1063C72.1346 28.1063 73.4662 29.3602 73.4662 31.2006C73.4662 33.026 72.1346 34.2948 70.5874 34.2948ZM57.2946 27.6664V29.827H62.4807C62.3221 31.039 61.9211 31.9337 61.3076 32.5472C60.5475 33.3073 59.3745 34.1332 57.3066 34.1332C54.1196 34.1332 51.6268 31.5597 51.6268 28.3726C51.6268 25.1856 54.1196 22.612 57.3066 22.612C59.0273 22.612 60.2812 23.2913 61.2119 24.1592L62.744 22.627C61.4513 21.3881 59.7306 20.4395 57.3186 20.4395C52.9465 20.4395 49.2777 24.0006 49.2777 28.3607C49.2777 32.7327 52.9435 36.2819 57.3186 36.2819C59.6797 36.2819 61.4513 35.5098 62.8518 34.0554C64.2792 32.628 64.7311 30.614 64.7311 28.9891C64.7311 28.4834 64.6922 28.0285 64.6114 27.6425H57.2917C57.2946 27.6395 57.2946 27.6664 57.2946 27.6664ZM111.666 29.3482C111.238 28.2021 109.945 26.0953 107.294 26.0953C104.666 26.0953 102.482 28.1632 102.482 31.2006C102.482 34.0674 104.642 36.3058 107.548 36.3058C109.882 36.3058 111.241 34.8784 111.8 34.0405L110.068 32.8794C109.493 33.7322 108.694 34.2918 107.56 34.2918C106.414 34.2918 105.612 33.7711 105.079 32.7447L111.905 29.9168C111.905 29.9198 111.666 29.3482 111.666 29.3482ZM104.705 31.0539C104.651 29.0819 106.237 28.0794 107.372 28.0794C108.266 28.0794 109.011 28.5193 109.266 29.1597L104.705 31.0539ZM99.16 36.0006H101.401V21.0021H99.16V36.0006ZM95.4792 27.2415H95.3984C94.8927 26.64 93.9321 26.0953 92.7052 26.0953C90.1585 26.0953 87.8124 28.3367 87.8124 31.2155C87.8124 34.0824 90.1466 36.2968 92.7052 36.2968C93.9171 36.2968 94.8927 35.7492 95.3984 35.1357H95.4792V35.8689C95.4792 37.817 94.4378 38.8674 92.759 38.8674C91.3855 38.8674 90.5326 37.8799 90.1855 37.0539L88.2373 37.8679C88.7969 39.2145 90.2902 40.8814 92.756 40.8814C95.3835 40.8814 97.6099 39.3342 97.6099 35.5607V26.4006H95.4912V27.2415C95.4942 27.2415 95.4792 27.2415 95.4792 27.2415ZM92.9057 34.2948C91.3585 34.2948 90.0658 33.0021 90.0658 31.2155C90.0658 29.414 91.3585 28.1093 92.9057 28.1093C94.4378 28.1093 95.6259 29.429 95.6259 31.2155C95.6408 33.0021 94.4408 34.2948 92.9057 34.2948ZM122.161 21.0021H116.801V36.0006H119.042V30.3208H122.164C124.644 30.3208 127.083 28.5223 127.083 25.6674C127.083 22.8125 124.653 21.0021 122.161 21.0021ZM122.226 28.226H119.039V23.0789H122.226C123.905 23.0789 124.854 24.4644 124.854 25.6524C124.854 26.8285 123.893 28.226 122.226 28.226ZM136.067 26.0804C134.439 26.0804 132.76 26.8016 132.066 28.3726L134.053 29.1986C134.481 28.3726 135.265 28.0913 136.094 28.0913C137.255 28.0913 138.428 28.7856 138.455 30.0245V30.1831C138.054 29.9557 137.174 29.6085 136.121 29.6085C133.975 29.6085 131.799 30.7816 131.799 32.9811C131.799 34.9951 133.559 36.2878 135.519 36.2878C137.024 36.2878 137.853 35.6085 138.371 34.8215H138.452V35.9826H140.612V30.237C140.612 27.5617 138.625 26.0804 136.067 26.0804ZM135.786 34.2948C135.052 34.2948 134.026 33.9357 134.026 33.014C134.026 31.8529 135.307 31.413 136.399 31.413C137.387 31.413 137.853 31.6255 138.44 31.9188C138.278 33.2654 137.141 34.2829 135.786 34.2948ZM148.495 26.4006L145.921 32.9063H145.84L143.174 26.4006H140.762L144.763 35.4948L142.483 40.5492H144.817L150.973 26.4006H148.495ZM128.319 36.0006H130.561V21.0021H128.319V36.0006Z" fill="white"/>
<path fill-rule="evenodd" clip-rule="evenodd" d="M12.5207 9.03978C12.1735 9.41384 11.973 9.98541 11.973 10.7336V37.2682C11.973 38.0164 12.1735 38.5879 12.5326 38.947L12.6254 39.0278L27.4923 24.161V23.8288L12.6134 8.95898L12.5207 9.03978Z" fill="url(#paint0_linear_273_32123)"/>
<path fill-rule="evenodd" clip-rule="evenodd" d="M32.4389 29.1316L27.4803 24.173V23.8258L32.4389 18.8672L32.5466 18.9331L38.4119 22.2667C40.0907 23.2124 40.0907 24.7745 38.4119 25.7321L32.5466 29.0657L32.4389 29.1316Z" fill="url(#paint1_linear_273_32123)"/>
<path fill-rule="evenodd" clip-rule="evenodd" d="M32.5468 29.0663L27.4805 24L12.5208 38.9596C13.0685 39.5461 13.9872 39.612 15.0136 39.0404L32.5468 29.0663Z" fill="url(#paint2_linear_273_32123)"/>
<path fill-rule="evenodd" clip-rule="evenodd" d="M32.5468 18.933L15.0136 8.97385C13.9872 8.38732 13.0655 8.46811 12.5208 9.05465L27.4805 23.9993L32.5468 18.933Z" fill="url(#paint3_linear_273_32123)"/>
<path opacity="0.2" fill-rule="evenodd" clip-rule="evenodd" d="M32.4389 28.959L15.0254 38.8523C14.0529 39.4119 13.185 39.373 12.6254 38.8642L12.5327 38.957L12.6254 39.0378C13.185 39.5435 14.0529 39.5854 15.0254 39.0258L32.5586 29.0668L32.4389 28.959Z" fill="#191919"/>
<path opacity="0.12" fill-rule="evenodd" clip-rule="evenodd" d="M38.412 25.5591L32.4238 28.9586L32.5316 29.0663L38.397 25.7327C39.2379 25.2539 39.6509 24.6254 39.6509 24C39.6 24.5746 39.1721 25.1192 38.412 25.5591Z" fill="#191919"/>
<path opacity="0.25" fill-rule="evenodd" clip-rule="evenodd" d="M15.0134 9.14873L38.412 22.4415C39.1721 22.8694 39.6 23.429 39.6659 24.0006C39.6659 23.3751 39.2529 22.7467 38.412 22.2679L15.0134 8.97517C13.3346 8.01457 11.973 8.81656 11.973 10.7347V10.9083C11.973 8.98714 13.3346 8.2001 15.0134 9.14873Z" fill="white"/>
</g>
<defs>
<linearGradient id="paint0_linear_273_32123" x1="26.1588" y1="10.4473" x2="2.34459" y2="16.7926" gradientUnits="userSpaceOnUse">
<stop stop-color="#00A0FF"/>
<stop offset="0.00657" stop-color="#00A1FF"/>
<stop offset="0.2601" stop-color="#00BEFF"/>
<stop offset="0.5122" stop-color="#00D2FF"/>
<stop offset="0.7604" stop-color="#00DFFF"/>
<stop offset="1" stop-color="#00E3FF"/>
</linearGradient>
<linearGradient id="paint1_linear_273_32123" x1="40.6012" y1="23.9994" x2="11.5651" y2="23.9994" gradientUnits="userSpaceOnUse">
<stop stop-color="#FFE000"/>
<stop offset="0.4087" stop-color="#FFBD00"/>
<stop offset="0.7754" stop-color="#FFA500"/>
<stop offset="1" stop-color="#FF9C00"/>
</linearGradient>
<linearGradient id="paint2_linear_273_32123" x1="29.7919" y1="26.7568" x2="10.6741" y2="58.9338" gradientUnits="userSpaceOnUse">
<stop stop-color="#FF3A44"/>
<stop offset="1" stop-color="#C31162"/>
</linearGradient>
<linearGradient id="paint3_linear_273_32123" x1="8.75377" y1="0.213833" x2="17.283" y2="14.5846" gradientUnits="userSpaceOnUse">
<stop stop-color="#32A071"/>
<stop offset="0.0685" stop-color="#2DA771"/>
<stop offset="0.4762" stop-color="#15CF74"/>
<stop offset="0.8009" stop-color="#06E775"/>
<stop offset="1" stop-color="#00F076"/>
</linearGradient>
<clipPath id="clip0_273_32123">
<rect width="160" height="48" fill="white"/>
</clipPath>
</defs>
</svg>
