<svg width="15" height="15" viewBox="0 0 15 15" fill="none" xmlns="http://www.w3.org/2000/svg">
<g clip-path="url(#clip0_652_6573)">
<path d="M4.20732 1.28049C2.59087 1.28049 1.28049 2.59087 1.28049 4.20732V10.7927C1.28049 12.4091 2.59087 13.7195 4.20732 13.7195H10.7927C12.4091 13.7195 13.7195 12.4091 13.7195 10.7927V4.20732C13.7195 2.59087 12.4091 1.28049 10.7927 1.28049H4.20732ZM4.20732 0H10.7927C13.1163 0 15 1.88368 15 4.20732V10.7927C15 13.1163 13.1163 15 10.7927 15H4.20732C1.88368 15 0 13.1163 0 10.7927V4.20732C0 1.88368 1.88368 0 4.20732 0Z" fill="#D9D9D9"/>
<path d="M7.59051 5.30393C6.32766 5.30393 5.30393 6.32766 5.30393 7.59051C5.30393 8.85336 6.32766 9.8771 7.59051 9.8771C8.85336 9.8771 9.8771 8.85336 9.8771 7.59051C9.8771 6.32766 8.85336 5.30393 7.59051 5.30393ZM7.59051 4.02344C9.56055 4.02344 11.1576 5.62047 11.1576 7.59051C11.1576 9.56055 9.56055 11.1576 7.59051 11.1576C5.62047 11.1576 4.02344 9.56055 4.02344 7.59051C4.02344 5.62047 5.62047 4.02344 7.59051 4.02344Z" fill="#D9D9D9"/>
<path d="M12.4397 3.75014C12.4397 3.19454 11.9893 2.74414 11.4337 2.74414C10.8781 2.74414 10.4277 3.19454 10.4277 3.75014C10.4277 4.30574 10.8781 4.75614 11.4337 4.75614C11.9893 4.75614 12.4397 4.30574 12.4397 3.75014Z" fill="#D9D9D9"/>
</g>
<defs>
<clipPath id="clip0_652_6573">
<rect width="15" height="15" fill="white"/>
</clipPath>
</defs>
</svg>
