<svg width="19" height="19" viewBox="0 0 19 19" fill="none" xmlns="http://www.w3.org/2000/svg">
<g clip-path="url(#clip0_652_6583)">
<path d="M14.224 0H4.76C3.49829 0.00290624 2.2891 0.505475 1.39703 1.39774C0.504956 2.29 0.0026412 3.49929 0 4.761L0 14.239C0 16.845 2.14 18.985 4.761 18.985H14.239C15.5009 18.9824 16.7103 18.4799 17.6026 17.5876C18.4949 16.6953 18.9974 15.4859 19 14.224V4.76C18.985 2.14 16.845 0 14.224 0ZM6.328 15.369H3.616V7.534H6.328V15.369ZM4.958 6.329C4.77554 6.32966 4.59475 6.29421 4.42605 6.22469C4.25736 6.15517 4.10408 6.05296 3.97506 5.92394C3.84604 5.79492 3.74383 5.64164 3.67431 5.47295C3.60479 5.30425 3.56934 5.12346 3.57 4.941C3.57 4.173 4.188 3.555 4.956 3.555C5.725 3.555 6.342 4.173 6.342 4.941C6.327 5.71 5.71 6.327 4.956 6.327L4.958 6.329ZM15.384 15.369H13.109V11.572C13.109 10.652 12.989 9.477 11.738 9.477C10.457 9.477 10.246 10.472 10.246 11.511V15.369H7.986V7.534H10.096V8.588H10.156C10.486 7.986 11.256 7.518 12.461 7.518C14.947 7.518 15.384 8.95 15.384 11.075V15.369Z" fill="#D9D9D9"/>
</g>
<defs>
<clipPath id="clip0_652_6583">
<rect width="19" height="19" fill="white"/>
</clipPath>
</defs>
</svg>
