<svg width="18" height="15" viewBox="0 0 18 15" fill="none" xmlns="http://www.w3.org/2000/svg">
<g clip-path="url(#clip0_652_4038)">
<path fill-rule="evenodd" clip-rule="evenodd" d="M12.367 9.70628e-07C11.8186 0.0140656 11.2802 0.15013 10.791 0.398306C10.3017 0.646482 9.87395 1.00054 9.53867 1.43474C9.2034 1.86894 8.96906 2.37239 8.85271 2.90849C8.73635 3.44459 8.74089 3.99988 8.866 4.534C7.39746 4.46069 5.96076 4.07932 4.64919 3.41467C3.33762 2.75001 2.18051 1.81692 1.253 0.676001C0.779267 1.48863 0.633755 2.45149 0.846201 3.36782C1.05865 4.28414 1.61301 5.08474 2.396 5.606C1.80951 5.58736 1.23594 5.42897 0.723 5.144V5.192C0.723361 6.04446 1.01847 6.87058 1.5583 7.53033C2.09813 8.19009 2.84948 8.64289 3.685 8.812C3.14093 8.95913 2.57049 8.98034 2.017 8.874C2.25271 9.60803 2.71201 10.25 3.33061 10.7101C3.94922 11.1702 4.69619 11.4254 5.467 11.44C4.70107 12.0419 3.82393 12.4867 2.88581 12.7491C1.9477 13.0115 0.967039 13.0862 0 12.969C1.6881 14.0544 3.65307 14.6307 5.66 14.629C12.453 14.629 16.168 9.001 16.168 4.121C16.168 3.961 16.164 3.801 16.158 3.642C16.8809 3.1202 17.5047 2.47336 18 1.732C17.3264 2.03054 16.6118 2.22606 15.88 2.312C16.6509 1.85092 17.2278 1.12512 17.503 0.270001C16.7779 0.700863 15.9845 1.00457 15.157 1.168C14.8118 0.799041 14.3944 0.504973 13.9308 0.304049C13.4672 0.103125 12.9673 -0.000365641 12.462 9.70628e-07H12.367Z" fill="#D9D9D9"/>
</g>
<defs>
<clipPath id="clip0_652_4038">
<rect width="18" height="15" fill="white"/>
</clipPath>
</defs>
</svg>
