<svg width="20" height="20" viewBox="0 0 20 20" fill="none" xmlns="http://www.w3.org/2000/svg">
<path fill-rule="evenodd" clip-rule="evenodd" d="M19.9992 17.2195C20.0077 17.576 19.9478 17.9307 19.823 18.2634C19.6983 18.5961 19.511 18.9002 19.2721 19.1584C19.0331 19.4166 18.7471 19.6238 18.4303 19.7681C18.1135 19.9124 17.7722 19.9911 17.4259 19.9995H2.55818C1.86158 19.9781 1.20153 19.6737 0.722314 19.1528C0.243099 18.6318 -0.0163079 17.9368 0.000795088 17.2195V11.4304C-0.0163079 10.7132 0.243099 10.0181 0.722314 9.49717C1.20153 8.97623 1.86158 8.67179 2.55818 8.65039H17.4259C17.7722 8.65888 18.1135 8.73753 18.4303 8.88185C18.7471 9.02618 19.0331 9.23335 19.2721 9.49152C19.511 9.74969 19.6983 10.0538 19.823 10.3865C19.9478 10.7192 20.0077 11.0739 19.9992 11.4304V17.2195Z" fill="#D9D9D9"/>
<path fill-rule="evenodd" clip-rule="evenodd" d="M8.29206 0.0654129L7.38665 3.09076L6.94189 4.61161V7.5879H5.55995V4.67703C5.47799 4.12329 5.35587 3.57666 5.19461 3.0417C5.01988 2.38757 4.74985 1.40638 4.40039 0H5.71879L6.35417 2.66558L7.05308 0L8.29206 0.0654129Z" fill="#D9D9D9"/>
<path fill-rule="evenodd" clip-rule="evenodd" d="M10.3891 6.42665V2.69811C10.3891 2.50187 10.3891 2.40375 10.1667 2.40375C9.94432 2.40375 9.94432 2.50187 9.94432 2.69811V6.42665C9.94432 6.62289 10.0237 6.73736 10.1667 6.73736C10.3097 6.73736 10.3891 6.62289 10.3891 6.42665ZM8.68945 6.42665V2.74717C8.68945 1.88045 9.19775 1.45526 10.1826 1.45526C10.542 1.45011 10.8951 1.55236 11.1992 1.74962C11.3406 1.8558 11.4539 1.99672 11.5288 2.15953C11.6037 2.32235 11.6378 2.50188 11.6281 2.68176V6.42665C11.6281 7.26066 11.1515 7.6695 10.1826 7.6695C9.21364 7.6695 8.68945 7.24431 8.68945 6.37759" fill="#D9D9D9"/>
<path fill-rule="evenodd" clip-rule="evenodd" d="M15.0759 7.58731H13.821V7.37472C13.7236 7.47967 13.6045 7.56064 13.4724 7.61161C13.3404 7.66257 13.199 7.68222 13.0585 7.66908C12.8195 7.67283 12.5875 7.58546 12.4073 7.42378C12.3192 7.35188 12.2489 7.25962 12.202 7.15449C12.1551 7.04936 12.1329 6.93432 12.1373 6.81871V1.50391H13.3921V6.40988C13.3921 6.58976 13.3921 6.68788 13.6145 6.68788C13.8369 6.68788 13.821 6.68788 13.821 6.42623V1.52026H15.0759V7.58731Z" fill="#D9D9D9"/>
<path fill-rule="evenodd" clip-rule="evenodd" d="M5.86242 11.4304H5.02055V17.9554H3.52742V11.4304H2.68555V10.4492H5.86242V11.4304Z" fill="white"/>
<path fill-rule="evenodd" clip-rule="evenodd" d="M9.57934 17.9709H8.22917V17.7583C8.11958 17.8647 7.98927 17.946 7.84688 17.9968C7.70449 18.0475 7.55325 18.0665 7.40318 18.0526C7.15211 18.0574 6.90651 17.9769 6.70427 17.8237C6.61206 17.7509 6.53803 17.6566 6.48831 17.5486C6.43858 17.4405 6.4146 17.3218 6.41835 17.2023V11.8711H7.76852V16.7771C7.76852 16.9733 7.84794 17.0551 8.00679 17.0551C8.16563 17.0551 8.22917 16.9733 8.22917 16.7934V11.8874H9.57934V17.9709Z" fill="white"/>
<path fill-rule="evenodd" clip-rule="evenodd" d="M11.9788 16.8106V13.0657C11.9788 12.8859 11.9788 12.8041 11.7405 12.8041C11.5023 12.8041 11.5976 12.8695 11.5976 13.0657V16.827C11.5976 17.0232 11.677 17.105 11.8199 17.105C11.9629 17.105 12.0582 17.0232 12.0582 16.827M11.3752 17.7591L11.264 17.9717H10.168V10.4492H11.5976V12.0845C11.8371 11.9084 12.1304 11.8271 12.4235 11.8556C12.6673 11.8508 12.9063 11.9252 13.1066 12.0682C13.2037 12.1371 13.2824 12.2303 13.3352 12.3389C13.3879 12.4476 13.4131 12.5682 13.4084 12.6896V17.0559C13.4136 17.1982 13.3827 17.3395 13.3186 17.4657C13.2545 17.5919 13.1595 17.6987 13.043 17.7755C12.7882 17.962 12.482 18.0594 12.1694 18.0535C11.8805 18.0476 11.6014 17.9442 11.3752 17.7591Z" fill="white"/>
<path fill-rule="evenodd" clip-rule="evenodd" d="M15.7251 14.4729V13.0666C15.7251 12.8703 15.7251 12.7722 15.5028 12.7722C15.2804 12.7722 15.2645 12.8703 15.2645 13.0666V14.4566L15.7251 14.4729ZM17.0753 15.3724H15.2645V16.7951C15.2645 17.0077 15.3439 17.1058 15.5028 17.1058C15.6616 17.1058 15.7251 17.0077 15.7251 16.7951V15.5686H17.0753V16.8115C17.0753 17.6291 16.5511 18.038 15.4869 18.038C14.4226 18.038 13.8984 17.6128 13.8984 16.746V13.0666C13.8984 12.2162 14.4279 11.791 15.4869 11.791C16.5511 11.791 17.0753 12.1998 17.0753 13.0175V15.3724Z" fill="white"/>
</svg>
